<svg version="1" xmlns="http://www.w3.org/2000/svg" width="682.667" height="682.667" viewBox="0 0 512.000000 512.000000"><path d="M.6 1.6c-1 2.5-.6 4.1.5 2.1.6-.9 1.5-1.4 2.1-1.1.6.4.8.3.4-.4-.3-.5 0-1.3.6-1.5.7-.3.3-.6-.8-.6C2.2 0 .9.7.6 1.6zM6 1.5c0 .8.3 1.5.6 1.5s1.2-.7 2-1.5C10 .2 9.9 0 8.1 0 6.9 0 6 .6 6 1.5zM90.4 3.7c-.5 2.7-.2 4.5 1 6.6 1.8 3.2 2.1 5.4.6 5.9-1.6.5-3.3 24.2-2.4 34.2 1.1 14.1.8 30.5-1 49.6-2.3 24.9-2.5 26.2-3.6 39.5-.6 6.6-1.3 13.6-1.5 15.5-.2 1.9-.7 6.9-1 11-.4 4.1-2.4 19.4-4.5 34-2.2 14.5-3.5 26.7-3 27 .4.3 1 1.9 1.2 3.5.4 4.2 4.2-17.7 7.3-42.5 1.5-11.3 3.2-23.4 4-27 .7-3.6 2.2-12.1 3.1-19 2.8-19.5 2.8-11.6 0 11.1-1.4 11.2-3.3 27.6-4.1 36.4-1.6 16.4-2.3 21.2-7.4 53.5-3.6 22.3-5.8 39.7-6.6 50.5-.8 11.5-1.6 16.7-2.7 18.9-1.1 2-2.2 17.6-3.3 47.1l-.7 17-3.1 2.7c-2.8 2.4-8.8 4.6-11 4-.4-.1-.7.2-.7.7 0 .5-.9 1.2-1.9 1.6-1 .3-2.2 1.7-2.5 3-.4 1.5-1.4 2.5-2.4 2.5-1.5 0-1.5.2-.2 1.1 1.3.9 1.2 1-.2.5-1-.3-2.5-.9-3.5-1.3-1.1-.4-1.4-.3-.9.5.4.7.1 1.2-.8 1.2s-3.2.9-5.2 2.1c-2.8 1.5-3.9 1.7-4.8.9-.8-.9-.6-1.5.8-2.4 11.2-6.9 10.8-6.6 10.3-9.4-.3-1.5-.1-5.1.4-8.1 1.1-6.8.2-13.4-1.7-12.7-.8.3-2.2-.4-3.2-1.4-1.3-1.4-2.8-1.9-5-1.6-1.7.2-2.9-.1-2.6-.6.3-.5.1-1.5-.5-2.2-.6-.7-.9-2.2-.6-3.4.2-1.2 0-2.4-.5-2.7-.5-.3-.7-1.2-.4-1.9.3-.8-.4-2-1.5-2.8-1.2-.8-1.9-1.8-1.6-2.1.3-.4-.1-.3-.7.3-1.6 1.3-6.8 1.3-6.8 0 0-.6-.8-1-1.7-1-1.3 0-1.4-.3-.5-1.2.8-.8 1.5-.8 2.8.3 1.6 1.3 1.6 1.2.5-.9-.7-1.3-1-3-.7-3.8.4-1.1.2-1.2-1.4-.2-1 .7-1.7 1.5-1.4 1.9.2.4 0 1-.5 1.3-1.3.9-3.2-1.9-2.5-3.7.4-1.2.1-1.4-1.7-1-1.2.4-2 .2-1.7-.3.3-.5-.9-1-2.8-1.1l-3.4-.2v79.2l4.9-4.6c3.8-3.6 13.8-9.6 22.3-13.5.5-.2.8.3.8 1.2 0 .9-.6 1.6-1.3 1.6-.8 0-2.4.9-3.7 2-1.3 1.1-3 2-4 2-.9 0-2.1.5-2.8 1.2-1.3 1.3-1.7 3.2-.4 2.5.4-.3 1.6 0 2.7.4 1.3.6.3.8-3.1.4-5-.5-5.3-.4-10.3 4.1-5.1 4.6-6.6 8.4-3.3 8.4 1.6.1 1.6.1-.1 1.4-1.6 1.2-1.7 4.6-1.7 46V512h96.6c87.7 0 96.6-.1 96-1.6-.3-.9-.6-2.2-.6-2.9 0-1.5-5.6-7.5-7-7.5-.5 0-.7-.6-.4-1.4.3-.7-.2-2-1.1-2.9-1.1-1.1-1.2-1.8-.4-2.3.9-.5.7-1.1-.5-2-1-.7-1.5-1.7-1.1-2.3.8-1.5-2.5-.2-4.8 1.7-1.5 1.4-1.7 1.3-1.7-.2 0-.9-.4-1.4-1-1.1-.5.3-1 .1-1-.4 0-.6.6-1.1 1.3-1.2.6 0 2.1-.3 3.2-.6s4.1-.7 6.8-.9c3.7-.3 4.7-.1 4.7 1.1 0 1.8 1.2 1.9 2.9.2 1-1 1.2-.8.9.8-.2 1.1-1 1.9-1.6 1.8-1.7-.4-1.5 1.4.2 2 .8.3 1.7.1 1.9-.6.3-.9.8-.8 2 .2 1.8 1.4 2.4 3.6.7 2.6-2.2-1.4-.8 1.4 1.5 2.9 2.4 1.6 2.5 1.5 3-1.1.3-1.6 1-4.4 1.5-6.3.6-2.2.6-3.8 0-4.4-1.7-1.7-1.2-4.9.6-4.2.8.3 1.3.2 1-.3-.3-.5 1-1.6 2.9-2.5 1.9-.9 3.5-2 3.5-2.4 0-.4 1-1.2 2.3-1.7 1.2-.6 2.1-1.5 2-2.1-.1-.5-.4-2.3-.8-3.9-.6-2.9-.6-2.9.9-1.1 1.5 1.8 1.6 1.8 1.6.2 0-.9.5-1.4 1-1.1.6.3 1 .1 1-.5s.5-.8 1-.5c.6.3 1 .2 1-.2 0-.5 1.9-1.8 4.2-2.8 4.9-2.1 21.3-17.9 20.3-19.5-.3-.6-.1-.9.7-.8.7.2 1.2-.3 1.1-1-.2-.6.3-1.2 1.1-1.2.7 0 1.9-.7 2.6-1.5 1.1-1.3 1-1.4-.3-1-.8.4-1.8.2-2.1-.3-.5-.9 2.8-2.6 4.6-2.3.4 0 1-.8 1.3-1.9.4-1.1 1.2-2 1.9-2 1.8 0 4.8-3.5 3.9-4.5-.5-.4-.2-.5.5-.1.6.4 1.2.2 1.2-.3 0-.6.3-1 .8-.9.9.4 18.7-13.9 22.7-18.1 2.3-2.5 2.6-3.1 1-2.5-1.8.6-1.8.5.4-1.9 1.3-1.5 2.8-2.4 3.4-2 .6.3.7.1.3-.6-.4-.6 0-1.4.8-1.7.9-.3 1.6-1.2 1.6-1.9s.9-1.5 2.1-1.8c1.2-.3 1.8-1 1.5-1.5-.3-.6-.3-1.2.1-1.4.5-.1 1.5-1.7 2.4-3.3 1-1.7 2.6-3.4 3.8-4 1.2-.5 2.1-1.6 2.1-2.3 0-.7.5-1.8 1-2.5.6-.7 1.8-2.1 2.6-3.2.9-1.1 1.3-1.4.9-.8-.3.7-.4 1.3-.1 1.3 1 0 6.3-8.7 7-11.4.4-1.6 1.6-3 2.6-3.3 1.1-.3 2-1 2-1.6 0-.5 1.3-2.2 2.9-3.8 1.6-1.5 2.7-3 2.4-3.2-.2-.3 2.2-.9 5.4-1.2 20.3-2.5 39.8-14.7 45.1-28.3 1.2-3.2 2.2-7 2.2-8.5 0-3.6-2.5-9.6-5.3-12.5-2.9-3.2-12.3-9.6-17.3-11.8-2.6-1.1-3.4-1.8-2.2-2.1.9-.2 3.5.5 5.7 1.6 4.4 2.3 5.5 2.6 4.7 1.2-.3-.5.9-1.2 2.7-1.5 7.3-1.5 9.4-11.4 4.5-21.1-1.9-3.8-2.3-5.6-1.7-7.3.5-1.3.7-2.8.3-3.3-.3-.5-.1-.9.4-.9 1.1 0 .3-5-1.1-6.8-.6-.8-.6-1.6.1-2.5.8-1 1.5-3.6 2.5-9.9.6-3.2 1.7-3.2 2.3 0 .7 3.4 2.1 4.4 2.1 1.4 0-3.4.3-4.3 1.2-3.7.5.3 1.2.1 1.6-.5.4-.6 1.1-.7 1.7-.4.7.5.9.1.5-.9-.3-.9-.2-1.9.3-2.2.6-.4 1-1.5 1-2.6s-.4-1.7-1-1.4c-.5.3-1 .1-1-.5 0-.7.8-.9 2-.5 1.4.5 2 .2 2-.9 0-.9-.4-1.6-.9-1.6s-.7-1.6-.4-3.5c.3-1.9 0-3.5-.5-3.5-.6 0-.7-1.5-.1-4.2 1.1-4.6.5-7.3-1.2-6.2-.8.4-.9.3-.5-.4.8-1.4-3.3-6.4-4.7-5.5-.5.3-.4-.5.3-1.7.8-1.5.8-2 .1-1.6-.6.4-1.1.2-1.1-.5 0-.8-.5-.7-1.7.2-1.5 1.3-1.5 1.2-.5-.8.7-1.2 1-4 .8-6.4-.3-2.7.1-5 1.1-6.5.8-1.3 1.2-2.8.8-3.4-1.1-1.8.5-7.2 2-6.6.9.3 1.2 0 .8-1-.3-.7-1-1.4-1.6-1.4-.6 0-.8-.2-.5-.5.3-.3 1.6-.1 3 .4 1.9.7 2.9.6 4.2-.7 1.6-1.6 1.8-1.6 3.4.4 1 1.1 2.3 1.9 2.9 1.7.6-.2 2 .5 3.1 1.7 2 2.2 5.5 1.8 4.6-.5-.3-.7.2-1.5 1-1.8 1.7-.7 2.2-4.7.6-4.7-.5 0-1-1.1-1-2.6 0-1.4-1-4.4-2.2-6.7-3.7-7.2-3.8-7.7-3.3-10 .6-2.1-2.8-19.8-4.2-22-.3-.5-1.1.3-1.8 1.9l-1.2 2.9.2-3.8c.1-2.2.8-4.3 1.6-4.7 1.1-.7 1.1-1-.2-1.5-1.1-.4-1.4-1.4-1.1-3.2.3-1.4.1-2.8-.4-3.2-1.2-.8-3-3.8-4.9-8.1-.9-1.9-2.6-4.6-3.9-6-1.3-1.4-2.7-3.2-3.2-4.2-.5-.9-3.8-4.9-7.4-8.8-3.6-4-6.4-7.7-6.2-8.2.1-.5-.2-.7-.6-.4-1 .6-4.9-3.2-4.4-4.3.1-.3-1-1-2.4-1.5-1.5-.5-4.8-3.1-7.3-5.8-2.5-2.8-5.9-6.2-7.5-7.7-1.7-1.4-4.4-4-6.2-5.7-1.7-1.8-4.2-3.5-5.5-3.9-1.3-.4-3.7-1.7-5.4-2.9-1.6-1.2-3.9-2.2-5-2.1-1 0-3-1-4.3-2.2-2.6-2.4-11.1-5.2-18-6.1-3.6-.4-4.2-.8-3.7-2.3.4-1.1.2-1.9-.4-1.9-.6 0-1 .3-1 .7.1.5.1 1.3 0 2-.1 1.7-3.1.4-3.1-1.3 0-.8-.4-1.4-1-1.4-.5 0-1 .6-1 1.3 0 1.4-3.9 2.8-11 4.2-4.5.9-11 3.6-11 4.7 0 .4-.9.8-2 .8s-3.5.9-5.5 2c-1.9 1.1-3.5 1.6-3.5 1.1s-1.3-.4-2.9.2c-1.7.6-2.8 1.4-2.5 1.9.5.8 5.7.4 8.7-.7.9-.4 1.7-.3 1.7.4 0 .5-1.9 1.5-4.2 2.2-2.4.6-4.7 1.4-5.3 1.8-.5.4-2.7.7-4.8.5-2.1-.1-4.3.3-5 1-2.7 2.6-9.5 5.2-11.6 4.4-1.2-.4-3.3-.3-4.7.3-2.1.7-2.9.6-3.9-.7-.8-1.2-2-1.5-3.6-1.1l-2.4.6 2.3-1.9c1.2-1 2.2-2.4 2.2-3.1 0-.7.3-1 .6-.6.9.9 6.2-2 10.2-5.4 1.8-1.6 3-2.9 2.8-2.9-.5 0-4.7 1.6-16.6 6.2-1.4.5-2.7 1-3 1-.3.1-.9.7-1.5 1.4-.5.7-2.1 1.4-3.5 1.6-1.4.2-2.4.9-2.3 1.5.2.7-.4 1-1.3.6-.9-.3-2.6.5-4.2 2-1.5 1.4-4.7 3.7-7.2 5.1-2.5 1.4-4.1 2.6-3.7 2.6.5 0-2.8 4.1-7.3 9.1-4.7 5.2-7.9 9.6-7.6 10.4.3.8-.6 3-1.9 4.9-1.4 2-2.2 3.6-1.8 3.6.3 0 0 .7-.7 1.5-.7.9-1 1.8-.7 2.1.3.3.1 2-.5 3.7-.5 1.8-1.1 4.2-1.3 5.3-.4 2.7-3.3 9-5.7 12.6-1 1.4-1.8 3.7-1.8 5.1 0 1.3-1.4 5-3 8.1-1.7 3.1-2.8 6.1-2.5 6.6.4.6-.3 2.7-1.4 4.8-3 5.5-5.1 11.2-5.1 13.6 0 1.2-1.4 3.8-3.1 5.9-1.7 2-2.6 3.7-2.1 3.7 1.2 0 1.2 3.3 0 4.1-.6.4-.4 1.5.3 2.7 2.2 3.5-.1 4.8-4.2 2.3-3.7-2.3-7.9-2.7-10.9-1.1-4.9 2.6-10.2 14.1-11.4 24.7-.4 2.9-2 9.7-3.7 15-4.1 13.5-5.1 21.1-3.9 31.7 1.5 13.2 6.1 20.4 15.5 24.2 2.5 1.1 4.5 2.3 4.5 2.9 0 .5-3 11.3-6.6 24l-6.7 23-12.9 18.6c-7 10.2-14.4 20.3-16.4 22.5l-3.5 3.9.5-12.5c.3-6.9.8-16.6 1-21.5.5-7.7.4-8.4-.5-4.5-1 4.2-1.4 6.4-1.8 10-.2.9-.6.5-1.2-1-1.1-2.6.1-20.9 2.7-40.5l1.4-11 4.5-4.2c3.6-3.4 4.5-4.9 4.5-7.5 0-1.8 1.6-26.3 3.5-54.3 1.9-28.1 4.8-71.3 6.5-96 3.3-49.3 5.8-82.9 6.7-88.8l.6-3.7h13.1c13.8.1 42.8 1.5 49.3 2.4l3.8.6-3.4-1.3c-1.8-.7-4.2-2.3-5.2-3.6-1.7-2-2.1-2.2-3.6-1-2 1.7-24.5 2.5-40.1 1.4-9.9-.7-10.4-.8-13.2-3.8-1.7-1.8-3-4.2-3-5.4 0-1.2-.5-2.5-1-2.8-.6-.4-.7-1.3-.2-2.3.4-.9.6-4.5.4-8l-.4-6.2H91.1l-.7 3.7zm130.7 59.1c.8-.2 1.3.4 1.3 1.4-.1 1 .4 1.8 1.2 1.8.8 0 1.4-.5 1.4-1 0-.6.5-1 1.1-1 .5 0 .8.4.5.9-.4.5-.1 1.1.4 1.3.6.2-.3.9-2 1.5-2.9 1.1-3.2 1-4.2-1.2-.6-1.4-1.5-2.2-1.9-1.9-.5.3-.9-.5-.9-1.8 0-1.6.3-1.9.9-1 .4.7 1.4 1.2 2.2 1zm9.9 2.6c0 .3-.4.8-1 1.1-.5.3-1 .1-1-.4 0-.6.5-1.1 1-1.1.6 0 1 .2 1 .4zM220 69c0 .5-.7 1-1.6 1-.8 0-1.2-.5-.9-1 .3-.6 1-1 1.6-1 .5 0 .9.4.9 1zm-5 3c-2.3 1.5-14.2 5.2-14.8 4.6-.2-.3.1-.8.9-1.1 11.2-4.1 17.3-5.7 13.9-3.5zm-22.5 9c-.3.5-1.2 1-1.8 1-.7 0-.6-.4.3-1 1.9-1.2 2.3-1.2 1.5 0zm-94.8 22.2c-.3.8-.6.5-.6-.6-.1-1.1.2-1.7.5-1.3.3.3.4 1.2.1 1.9zm254.6-.9c.2.7 2.6 1.8 5.3 2.5 4.7 1.3 8.4 3.6 8.4 5.3 0 .4-2.6-.1-5.7-1.1-7.1-2.2-21.9-5-26.7-5-5.9 0-4.1-1.9 2.2-2.3 13.1-.8 16-.7 16.5.6zm15.2 2.2c1.7.7 4.8 2.9 7 5 4 3.7 3 3.4-3.9-1.1-1.4-.9-3.1-1.7-3.8-1.8-.7-.1-3.3-1.2-5.8-2.4l-4.5-2.2 4 .6c2.2.4 5.4 1.2 7 1.9zm-46.8 4.1c-.3.3-1.2.4-1.9.1-.8-.3-.5-.6.6-.6 1.1-.1 1.7.2 1.3.5zm-226 12.6c-.3.7-.5.2-.5-1.2s.2-1.9.5-1.3c.2.7.2 1.9 0 2.5zm-1 7c-.3.8-.6.5-.6-.6-.1-1.1.2-1.7.5-1.3.3.3.4 1.2.1 1.9zm62.3 60.2c0 1.2-.5.7-1.9-2.4-1.1-2.4-1.1-2.4.3-.6.9 1.1 1.6 2.4 1.6 3zm4 6.6c1.1 2.2 1.8 4 1.5 4-.2 0-1.4-1.8-2.5-4s-1.8-4-1.5-4c.2 0 1.4 1.8 2.5 4zm219.1 27.3c-.6.8-.9 1.7-.6 2.1.3.3 0 .2-.6-.3-1.2-1-.4-3.1 1.3-3.1.7 0 .7.4-.1 1.3zM192 232.8c0 .2-1 .2-2.1-.1-1.7-.4-1.9-.3-1 .6 2 2 1.2 3.1-.9 1.2-1.1-1-2-2.6-2-3.6s-.4-2.1-1-2.4c-.5-.3-1-1.1-1-1.6s1.8.5 4 2.2c2.2 1.8 4 3.4 4 3.7zm-7-2.4c0 .3-.4.8-1 1.1-.5.3-1 .1-1-.4 0-.6.5-1.1 1-1.1.6 0 1 .2 1 .4zm87 21.1c.7.9.8 1.5.2 1.5-.5 0-1.2-.7-1.6-1.5-.3-.8-.4-1.5-.2-1.5s.9.7 1.6 1.5zm9.7 27.1c-.3.3-1.2.4-1.9.1-.8-.3-.5-.6.6-.6 1.1-.1 1.7.2 1.3.5zm23.8 11.5c.8 1.5 1.5 3.6 1.4 4.6 0 1.5-.2 1.4-.9-.3-.5-1.2-1.9-2.9-3.1-3.8-2.9-2-3.4-4.5-.8-3.9 1.1.3 2.6 1.8 3.4 3.4zM364 298c9.2 5.9 12.3 13.6 9.5 23.3-3 10.3-15 20.8-29.3 25.6-8 2.7-15.8 3.9-14.8 2.3.5-.8-.2-1.2-1.8-1.2-3.3 0-3.3-1.4.2-4.8 5.9-6 12.6-14.3 12.8-15.9.2-1 .8-1.9 1.3-2.1.6-.2 1.1-2.3 1.1-4.7 0-2.4.5-4.7 1.1-5 .6-.4.8-1.3.5-2-.3-.8-.2-1.5.2-1.7 1.1-.5 7.2-9.1 7.2-10.2 0-1.3 5.1-6.6 6.3-6.6.6 0 3.2 1.4 5.7 3zM77 340.4c0 .3-.4.8-1 1.1-.5.3-1 .1-1-.4 0-.6.5-1.1 1-1.1.6 0 1 .2 1 .4zm-51.2 16.9c.6.7.7 1.9.3 2.6-.6 1-1 .9-1.4-.3-.4-.9-1.5-1.6-2.6-1.6s-2.3-.5-2.6-1c-.9-1.5 5.1-1.2 6.3.3zm164.9 110.9c-.3.7-.5.2-.5-1.2s.2-1.9.5-1.3c.2.7.2 1.9 0 2.5zm-1.9 3.3c0 1.6-.2 1.5-.8-.5-1.1-3.4-1.1-6 0-3.5.5 1.1.8 2.9.8 4zm16.9-1.8c-.3 1-.5.4-.5-1.2 0-1.7.2-2.4.5-1.8.2.7.2 2.1 0 3zm-10.7.8c0 .5-.5.3-1-.5s-1-2-1-2.5c0-.6.5-.3 1 .5s1 1.9 1 2.5zm14.2-.1c.2 1.9 0 3.2-.4 3-.8-.5-1.2-6.4-.4-6.4.2 0 .6 1.5.8 3.4zm3-.9c.3 1.4.2 2.5-.2 2.5s-1-1.1-1.2-2.5c-.3-1.4-.2-2.5.2-2.5s1 1.1 1.2 2.5zm-26.5 1.7c-.3.8-.6.5-.6-.6-.1-1.1.2-1.7.5-1.3.3.3.4 1.2.1 1.9zm7 6c-.3.8-.6.5-.6-.6-.1-1.1.2-1.7.5-1.3.3.3.4 1.2.1 1.9zm-22 5.5c-.3 1-.5.4-.5-1.2 0-1.7.2-2.4.5-1.8.2.7.2 2.1 0 3zm26.6.6c-.3.5 0 1.3.7 1.7.9.6.8 1.3-.6 2.9-2.4 2.8-3 2.7-3.9-.6-.6-2.7-.7-2.7-2.1-.9-.8 1.1-1.4 1.7-1.4 1.4 0-.4-.3-1.3-.6-2.2-.5-1.2 0-1.6 1.9-1.6 1.4 0 2.8-.4 3.1-.8.3-.5 1.2-.9 2-.9s1.2.5.9 1zm-17.3 8.1c0 .8-.4 1.7-.9 2-1 .7-2.3-1.9-1.4-2.8 1.1-1.1 2.3-.6 2.3.8zm-18.9 12.8c1.1 2.1 1.1 2.2-.4.9-1-.7-1.7-1.7-1.7-2.2 0-1.5.9-1 2.1 1.3zm-8.6 2.8c.3.5.1 1-.4 1-.6 0-1.1-.5-1.1-1 0-.6.2-1 .4-1 .3 0 .8.4 1.1 1zM304.9 12.1c-1.5 1.5-1.5 1.8.5 4.2 2.7 3.2 5.4 4.1 5.8 2 .3-1.5.5-1.5 1.8-.1 1.9 1.9 6 4.1 6.6 3.5.9-.9-6.7-8-8.8-8.3-1.3-.1-2.6-.3-3-.3-.3-.1-.8-.7-1-1.4-.2-.9-.7-.8-1.9.4zM327.5 18.9c.3.5-.1 1.1-.8 1.3-.8.2.7 2.3 3.7 5.3 2.7 2.7 4.7 4.3 4.4 3.4-.4-.9-.1-2.2.5-2.9.9-.9.3-2-2.7-4.6-3.7-3.2-6.4-4.5-5.1-2.5zM299 25.8c0 1.4 3.5 4.2 5.3 4.2.9 0 1.9.5 2.2 1.1.4.5 1.2.8 1.8.6.7-.2 2 0 3.1.5 1.2.7 1.6.7 1.2 0-.7-1.2-11.5-7.2-12.8-7.2-.4 0-.8.4-.8.8z"/><path d="M238.5 39c.4.6 1.1.8 1.6.5 1.4-.9 1.1-1.5-.7-1.5-.8 0-1.2.5-.9 1zM359.3 41.6c1.4 1.5 12.8 2.9 18.2 2.4 4.9-.5 5-.5 1.5-1.2-6.2-1.2-20.5-2.1-19.7-1.2zM231.4 44.6c-1.9 1.5-1.9 1.5.1.6 1.1-.6 2.4-1 2.8-1 1.6 0 2.1-1.2.6-1.2-.9 0-2.4.7-3.5 1.6zM383.8 43.7c.7.3 1.6.2 1.9-.1.4-.3-.2-.6-1.3-.5-1.1 0-1.4.3-.6.6zM118 49c0 .4.6.7 1.3.7.6 0 8.4.3 17.2.6 11.8.4 13.6.3 7-.3-14.1-1.3-25.5-1.7-25.5-1zM159.7 51.7c1.8.2 5 .2 7 0 2.1-.2.7-.4-3.2-.4-3.8 0-5.5.2-3.8.4zM222 53.5c-1.3 1.4-2.9 2.5-3.7 2.5-.7 0-1.3.4-1.3 1 0 1.7 1.3 1.2 6.4-2.5 3.6-2.5 4.4-3.5 3-3.5-1.2 0-3.1 1.1-4.4 2.5zM414.7 227.3c-.4 1-.7 2.6-.7 3.5.1 1.5.2 1.5 1.1-.1.6-1 .9-2.5.7-3.5-.3-1.6-.4-1.5-1.1.1zM423.7 229c.8 3 2.1 3.4 1.5.5-.2-1.4-.8-2.5-1.2-2.5-.5 0-.6.9-.3 2zM432 228.1c0 .2-.4 1.9-.9 3.7-.5 1.7-.6 3.2-.1 3.2 1 0 2.4-5.9 1.6-6.7-.3-.4-.6-.4-.6-.2zM435 230.6c0 .8.5 1.2 1 .9.6-.3 1-1 1-1.6 0-.5-.4-.9-1-.9-.5 0-1 .7-1 1.6zM438.6 231.2c-.7 2.9-.8 6.3 0 5.5.3-.3.9-2.2 1.4-4.1.9-3.9-.4-5.1-1.4-1.4zM444 230.1c0 .2-.4 1.9-.9 3.7-.5 1.7-.6 3.2-.1 3.2 1 0 2.4-5.9 1.6-6.7-.3-.4-.6-.4-.6-.2zM450.6 234.7c.4 1.6 1.1 3.2 1.7 3.8.6.7.8.2.3-1.5-.3-1.4-.6-3.1-.6-3.8 0-.6-.5-1.2-1-1.2-.6 0-.8 1.1-.4 2.7zM461.7 234.3c-.4 1-.7 2.8-.6 4 0 2.1.1 2.1 1-.2.5-1.4.8-3.2.7-4-.3-1.3-.5-1.3-1.1.2zM378 239c0 .5.5 1 1.1 1 .5 0 .7-.5.4-1-.3-.6-.8-1-1.1-1-.2 0-.4.4-.4 1zM458.2 254c0 1.4.2 1.9.5 1.2.2-.6.2-1.8 0-2.5-.3-.6-.5-.1-.5 1.3zM453 260.9c0 .5.5 1.3 1 1.6.6.3 1 .2 1-.4 0-.5-.4-1.3-1-1.6-.5-.3-1-.2-1 .4zM462.7 261.7c-.4.3-.7 1.3-.7 2.2.1 1.3.3 1.3 1.1-.2 1.1-1.9.8-3.3-.4-2zM389.5 290.2c1.1.7 3.1 1.3 4.5 1.4 1.4.1 3.4.5 4.4.9 1.3.6 1.7.5 1.3-.2-.7-1-8.3-3.3-10.9-3.3-.7 0-.4.6.7 1.2zM402 292.4c0 .2.7.6 1.5 1 .8.3 1.5.1 1.5-.4 0-.6-.7-1-1.5-1s-1.5.2-1.5.4zM428.8 297.7c.7.3 1.6.2 1.9-.1.4-.3-.2-.6-1.3-.5-1.1 0-1.4.3-.6.6zM94.5 298.9c-.3.5-.1 1.2.5 1.6.5.3 1-.1 1-.9 0-1.8-.6-2.1-1.5-.7zM432.8 298.7c.7.3 1.6.2 1.9-.1.4-.3-.2-.6-1.3-.5-1.1 0-1.4.3-.6.6zM437.8 299.7c.7.3 1.6.2 1.9-.1.4-.3-.2-.6-1.3-.5-1.1 0-1.4.3-.6.6zM89.5 303c-1 1.1-1.5 2.3-1.2 2.6.4.4.9-.1 1.3-1 .3-.9 1-1.3 1.5-1 .5.3.9-.2.9-1 0-2.1-.3-2-2.5.4zM57.9 325.7c-.1 1.6-.3 3.7-.5 4.8-.7 3.7-1.7 23-1.1 22.5 1.1-1.1 3.4-30 2.3-30-.3 0-.7 1.2-.7 2.7zM.1 328.2c0 1.3.3 1.8.5 1.1.3-.7 1.3-.9 2.2-.6 1.5.6 1.5.5.3-1-1.9-2.4-3.1-2.1-3 .5zM5.4 330.1c-.3.6-.2 1.5.3 2s.9.1 1-1.1c.2-2.2-.2-2.5-1.3-.9zM376.6 330.6c-.9 2.4-.7 2.8.9 1.4 1.7-1.4 2-3 .6-3-.5 0-1.2.7-1.5 1.6zM41.3 333.5c0 2.2.2 3 .4 1.7.2-1.2.2-3 0-4-.3-.9-.5.1-.4 2.3zM39.9 347.2c0 .7-.4 3.4-.8 6.1-.6 3.3-.4 5.3.5 6.4 1 1.5 1.2.4 1.2-6 0-4.2-.1-7.7-.4-7.7-.2 0-.4.6-.5 1.2zM27.5 350.1c-.4.6-.4 1.3 0 1.7.4.4 1 .1 1.2-.6.4-1 .8-1 1.9-.1 1.2 1 1.3.9.8-.5-.7-1.8-2.9-2.1-3.9-.5zM28 356.1c0 .5.5.7 1 .4.6-.3 1-.8 1-1.1 0-.2-.4-.4-1-.4-.5 0-1 .5-1 1.1zM302.4 457.5c.2 9.4.8 14 2 16.5 1.6 3.4 1.6 3.3 1.1-7.5-.2-6.1-1.1-13.5-1.9-16.5l-1.5-5.5.3 13zM218.5 469c-.3.5-.2 1 .4 1 .5 0 1.3-.5 1.6-1 .3-.6.2-1-.4-1-.5 0-1.3.4-1.6 1zM210 480.1c0 .5.5.7 1 .4.6-.3 1-.8 1-1.1 0-.2-.4-.4-1-.4-.5 0-1 .5-1 1.1zM206.1 481.3c-.1.5.4 1.7.9 2.7.8 1.6.8 1.8-.5 1.4-1.1-.5-1.5.1-1.5 2 0 1.4.4 2.6 1 2.6.5 0 .7-.7.4-1.5-.4-.8-.1-1.5.5-1.5s1.4 1.4 1.9 3.2c.8 3.4 3.2 5.1 3.2 2.3 0-.9-.4-1.4-.9-1.1-1 .7-2.3-3.6-1.3-4.4 1.5-1.1.9-4-.8-4-1 0-2.1-.6-2.3-1.3-.3-.6-.6-.8-.6-.4zM213 491.2c0 1 .3 1.8.8 1.8.4 0 1.2-.8 1.8-1.8 1-1.5.8-1.8-.7-1.8-1.2 0-1.9.7-1.9 1.8zM203.5 495.3c.1 1.8.5 4 1 4.9.8 2.1.5 2.1-2.9.8-1.9-.7-2.4-.6-2 .4.3.7-.3 1.7-1.3 2-1 .4-1.9.2-2.1-.3-.2-.6-.8-1.1-1.3-1.1-.4 0-.5.7-.2 1.7.5 1.2.3 1.4-.7.8-.8-.5-1.1-.3-.8.6.3.8 1.2 1.3 1.9 1.2.8-.2 2 1.1 2.7 3 1.1 2.8 1.4 3 2.3 1.5.7-1.2.6-2.4-.2-3.9-.9-1.7-.8-2.3.2-3 .9-.6 1.5-.3 1.7.7.2.9 1 1.3 1.9 1 .8-.3 2.1.1 2.9.9 1.4 1.4 1.1 1.9-.8 1.6-.5 0-.8.3-.8.9 0 .6-.5.9-1.1.8-.6-.2-1.4.3-1.6.9-.7 1.8 1.5 1.6 3.4-.3.9-.8 2.2-1.3 3-.9 1 .3 1.3.1 1-.8-.3-.8-.1-2 .4-2.8.8-1.2 1-1.2 1.9.1 1.6 2.4 1.2 4-1.2 5-2.1.8-2.1.9-.3.9 1.1.1 3.2-.6 4.8-1.3 2.3-1.3 2.7-1.3 2.7 0 0 1.8.8 1.8 2.5 0 1.6-1.6.2-3.6-2.6-3.6-1.2 0-1.6-.6-1.2-1.9.6-2.3-.6-3.1-5.2-3.3-1.9-.1-3.5-.5-3.5-1 0-.4-.6-.8-1.4-.8-1.7 0-2.9-2.7-1.6-3.5.6-.4 1 0 1.1.7.1.7.4.2.8-1.2.9-3 .9-3-1.6-3.4-1.6-.4-1.9.1-1.8 2.7zm5.1 8.4c-.7.7-2.6-.7-2.6-1.9 0-.6.6-.6 1.5.2.9.7 1.3 1.5 1.1 1.7z"/><path d="M214 500c0 1.2 3.7 1.4 4.4.2.2-.4-.6-.9-2-1-1.3-.1-2.4.3-2.4.8zM221.1 500.6c0 1.1.3 1.4.6.6.3-.7.2-1.6-.1-1.9-.3-.4-.6.2-.5 1.3z"/></svg>